<svg width="900" height="650" viewBox="0 0 628 628" fill="none" xmlns="http://www.w3.org/2000/svg">
<rect x="184" y="80" width="389" height="487" rx="18" fill="#7657FF" stroke="#05060F" stroke-width="8"/>
<path d="M182 61H523.92C533.887 61 541.956 69.0988 541.92 79.0655L540.53 461.179C540.512 465.98 538.578 470.575 535.156 473.943L476.341 531.829C472.974 535.143 468.439 537 463.715 537L182 537C172.059 537 164 528.941 164 519V79C164 69.0589 172.059 61 182 61Z" fill="white" stroke="#05060F" stroke-width="8"/>
<path d="M480 470H533.946C535.487 470 536.248 471.872 535.145 472.947L472.975 533.563C472.844 533.69 472.749 533.719 472.684 533.729C472.598 533.743 472.479 533.735 472.351 533.681C472.223 533.627 472.134 533.547 472.084 533.476C472.047 533.423 472 533.334 472 533.152V478C472 473.582 475.582 470 480 470Z" fill="white" stroke="#05060F" stroke-width="8"/>
<path d="M225.719 188V145.818H243.926C247.057 145.818 249.796 146.388 252.144 147.528C254.492 148.667 256.318 150.308 257.623 152.45C258.927 154.592 259.58 157.16 259.58 160.153C259.58 163.174 258.907 165.721 257.561 167.795C256.229 169.868 254.355 171.433 251.938 172.491C249.535 173.548 246.727 174.077 243.514 174.077H232.639V165.179H241.207C242.553 165.179 243.7 165.014 244.647 164.685C245.608 164.341 246.343 163.799 246.851 163.058C247.373 162.316 247.634 161.348 247.634 160.153C247.634 158.945 247.373 157.963 246.851 157.208C246.343 156.439 245.608 155.876 244.647 155.519C243.7 155.148 242.553 154.963 241.207 154.963H237.17V188H225.719ZM250.435 168.639L260.98 188H248.54L238.241 168.639H250.435ZM267.461 188V145.818H297.862V155.045H278.913V162.295H296.296V171.523H278.913V178.773H297.779V188H267.461ZM329.28 159C329.17 157.627 328.655 156.556 327.735 155.787C326.829 155.018 325.449 154.634 323.595 154.634C322.414 154.634 321.446 154.778 320.691 155.066C319.949 155.341 319.4 155.718 319.043 156.199C318.686 156.679 318.501 157.229 318.487 157.847C318.46 158.355 318.549 158.815 318.755 159.227C318.974 159.625 319.318 159.989 319.785 160.318C320.251 160.634 320.849 160.922 321.577 161.183C322.304 161.444 323.169 161.678 324.172 161.884L327.632 162.625C329.966 163.119 331.964 163.772 333.626 164.582C335.287 165.392 336.646 166.346 337.704 167.445C338.761 168.529 339.537 169.751 340.031 171.111C340.539 172.47 340.8 173.953 340.814 175.56C340.8 178.333 340.107 180.681 338.733 182.604C337.36 184.526 335.397 185.988 332.843 186.991C330.303 187.993 327.247 188.494 323.677 188.494C320.011 188.494 316.812 187.952 314.079 186.867C311.361 185.782 309.246 184.114 307.736 181.862C306.239 179.597 305.484 176.699 305.47 173.17H316.345C316.414 174.461 316.736 175.546 317.313 176.425C317.89 177.304 318.7 177.969 319.743 178.423C320.801 178.876 322.057 179.102 323.513 179.102C324.735 179.102 325.758 178.951 326.581 178.649C327.405 178.347 328.03 177.928 328.456 177.393C328.881 176.857 329.101 176.246 329.115 175.56C329.101 174.914 328.888 174.351 328.476 173.871C328.078 173.376 327.419 172.937 326.499 172.553C325.579 172.154 324.336 171.784 322.771 171.44L318.569 170.534C314.835 169.724 311.889 168.371 309.733 166.477C307.591 164.568 306.527 161.966 306.541 158.67C306.527 155.993 307.241 153.652 308.683 151.647C310.139 149.629 312.15 148.056 314.718 146.93C317.299 145.804 320.258 145.241 323.595 145.241C327 145.241 329.946 145.811 332.431 146.951C334.916 148.091 336.832 149.697 338.177 151.771C339.537 153.83 340.223 156.24 340.237 159H329.28ZM373.133 145.818H384.585V172.841C384.585 176.054 383.816 178.835 382.278 181.183C380.754 183.517 378.625 185.322 375.893 186.599C373.16 187.863 369.989 188.494 366.377 188.494C362.739 188.494 359.553 187.863 356.82 186.599C354.088 185.322 351.96 183.517 350.436 181.183C348.925 178.835 348.17 176.054 348.17 172.841V145.818H359.622V171.852C359.622 173.157 359.91 174.324 360.487 175.354C361.063 176.37 361.86 177.166 362.876 177.743C363.906 178.32 365.073 178.608 366.377 178.608C367.695 178.608 368.863 178.32 369.879 177.743C370.895 177.166 371.691 176.37 372.268 175.354C372.845 174.324 373.133 173.157 373.133 171.852V145.818ZM393.027 145.818H407.28L417.084 169.71H417.578L427.382 145.818H441.635V188H430.431V163.614H430.101L420.709 187.67H413.953L404.561 163.449H404.232V188H393.027V145.818ZM450.062 188V145.818H480.463V155.045H461.514V162.295H478.898V171.523H461.514V178.773H480.381V188H450.062Z" fill="#05060F"/>
<rect x="223" y="233" width="261" height="111" rx="13.7217" fill="#FF854D"/>
<rect x="223" y="399" width="194" height="11" rx="5.5" fill="#05060F"/>
<rect x="223" y="428" width="258" height="10" rx="5" fill="#05060F"/>
<rect x="100" y="226" width="184" height="45" transform="rotate(90 100 226)" fill="#FF854D" stroke="#05060F" stroke-width="8"/>
<path d="M100 408L100 424.5C100 436.926 89.9264 447 77.5 447C65.0736 447 55 436.926 55 424.5L55 408L100 408Z" fill="white" stroke="#05060F" stroke-width="8"/>
<mask id="mask0_5274_3601" style="mask-type:alpha" maskUnits="userSpaceOnUse" x="51" y="157" width="53" height="81">
<rect x="104" y="157" width="81" height="53" transform="rotate(90 104 157)" fill="white"/>
</mask>
<g mask="url(#mask0_5274_3601)">
<path d="M81.2229 175.261L102.113 228L52.8868 228L73.7771 175.261C75.1131 171.888 79.8869 171.888 81.2229 175.261Z" fill="white" stroke="#05060F" stroke-width="8"/>
</g>
</svg>
